PathFileType	4	(X/Y/Z)	RBDS08\RBDS08runT45.trc
DataRate	CameraRate	NumFrames	NumMarkers	Units	OrigDataRate	OrigDataStartFrame	OrigNumFrames
150.000000	150.000000	4	33	mm	150.000000	562	4500
Frame#	Time	L.ASIS			L.Heel.Bottom			L.Heel.Lateral			L.Heel.Top			L.Iliac.Crest			L.MT1			L.MT5			L.PSIS			L.Shank.Bottom.Lateral			L.Shank.Bottom.Medial			L.Shank.Top.Lateral			L.Shank.Top.Medial			L.Thigh.Bottom.Lateral			L.Thigh.Bottom.Medial			L.Thigh.Top.Lateral			L.Thigh.Top.Medial			R.ASIS			R.ASY			R.Heel.Bottom			R.Heel.Lateral			R.Heel.Top			R.Iliac.Crest			R.MT1			R.MT5			R.PSIS			R.Shank.Bottom.Lateral			R.Shank.Bottom.Medial			R.Shank.Top.Lateral			R.Shank.Top.Medial			R.Thigh.Bottom.Lateral			R.Thigh.Bottom.Medial			R.Thigh.Top.Lateral			R.Thigh.Top.Medial			
		X1	Y1	Z1	X2	Y2	Z2	X3	Y3	Z3	X4	Y4	Z4	X5	Y5	Z5	X6	Y6	Z6	X7	Y7	Z7	X8	Y8	Z8	X9	Y9	Z9	X10	Y10	Z10	X11	Y11	Z11	X12	Y12	Z12	X13	Y13	Z13	X14	Y14	Z14	X15	Y15	Z15	X16	Y16	Z16	X17	Y17	Z17	X18	Y18	Z18	X19	Y19	Z19	X20	Y20	Z20	X21	Y21	Z21	X22	Y22	Z22	X23	Y23	Z23	X24	Y24	Z24	X25	Y25	Z25	X26	Y26	Z26	X27	Y27	Z27	X28	Y28	Z28	X29	Y29	Z29	X30	Y30	Z30	X31	Y31	Z31	X32	Y32	Z32	X33	Y33	Z33	

563	3.746666666666667	2223.685072502096	1006.833945016097	914.9969868862324	2381.238207234124	32.89247661006912	977.745406992409	2411.568184024125	58.0965234731147	936.8476580615427	2375.631032425562	83.95395997184399	978.4427318070772	2163.331426690834	1084.747187946246	872.4838695363293	2577.882647082621	134.2055300922721	1045.205780035203	2565.253221602173	98.0660484695765	938.8604632773022	2058.248408115436	1046.784479880581	962.7109426630761	2411.555072775506	190.6147228975036	928.2364227830825	2369.711227844423	184.44140757481	958.0257559556574	2389.572357872391	265.8845990973171	907.4111017330905	2348.049653275268	264.9433689080569	941.3590823047787	2302.149628253352	657.22534975235	852.7995103559797	2249.260760771489	622.5243436765767	889.737919037645	2235.485378608807	744.6417089914465	840.9463794396996	2185.212344982726	712.090322473402	876.3582890466089	2215.524421570898	984.578700304962	1136.952831630033	1492.960497679003	428.7931029037485	1047.980710991551	1474.647099444218	623.598770970522	1063.486656813025	1480.544253935123	587.8627248175089	1102.615901355106	1519.134155522602	600.286356596911	1062.602175073261	2179.071884674099	1068.304057581263	1157.601951493824	1435.101955245695	408.2665866627336	995.1368357278121	1427.109851805638	431.1494107409453	1104.678006614678	2056.361703402226	1045.946002512909	1067.336428724686	1605.973313328985	545.5812691380205	1107.422847093373	1605.813823569593	579.0410159824404	1063.405474846758	1686.405743085154	558.0152009396954	1115.103506856782	1685.318667131207	588.1888304127345	1070.589238287299	1995.595028660757	606.0111645518053	1138.301800933524	1944.103601288909	633.4995929424324	1093.574131333422	2025.001881255672	708.9388999895755	1166.025451947209	1974.52171908702	734.10530506241	1125.628295337638	
564	3.753333333333333	2223.544045336901	1003.999618181434	915.4150044727025	2372.858432989695	28.532241672118	979.1110050514524	2403.521012681307	53.05035086557333	938.1954831219691	2368.689841157295	79.32225963424223	980.2063372507079	2163.239195954977	1081.70354293031	873.100997332728	2570.965243281335	125.0478583355041	1045.479564025616	2557.148029615206	89.73430550854768	939.1294714929285	2058.036907831769	1042.336914111517	963.7762884204091	2404.844390001783	182.6311703534324	929.4665673651771	2363.139569650465	176.5439977526589	959.4576306459809	2382.863110488872	257.8767243088508	908.5376788862617	2341.437066409673	257.0251328498496	942.6403419400078	2297.392317643962	650.4932817540872	853.3452837217916	2243.450140291632	616.7265028657645	889.6804408155103	2232.438055608771	739.3342618902691	841.3148207070907	2181.426239878604	707.7828211538222	876.5289780921267	2216.528698817915	980.1510953967824	1137.290615452074	1499.168792256771	448.526187154227	1052.396487959952	1492.570302611831	644.5927957222083	1067.929633016086	1496.529956450749	608.1529908478992	1106.796055508986	1535.644503211131	618.6118662071666	1066.990595707582	2178.816135421828	1063.192161763748	1158.878512886445	1439.96709023564	431.460577460898	999.5481053154706	1433.719820175678	454.4420716634407	1109.044379143375	2056.473295539059	1039.933728181079	1068.560334901566	1619.518928949918	558.5131494544886	1110.505166428581	1620.807749223958	591.7438589752763	1066.38180668495	1700.608228127519	566.0682160686404	1116.955537188348	1700.720202674671	596.0888950812717	1072.327671609133	2003.442145434875	597.2414431330357	1136.918686185986	1951.730952435295	624.0705564179342	1092.115054348253	2030.976224872002	700.5099240291289	1165.280369607943	1980.161344620764	725.1278276913505	1125.054783536959	
565	3.76	2223.269119286878	1000.547701111075	915.6392074259238	2360.081228263846	25.7512572088167	980.704986365488	2391.190336081612	49.315490411121	939.7315296696154	2358.038258989349	76.23055037312926	982.4116196460591	2163.132167561031	1078.003289202285	873.6913867647082	2560.772483728907	114.7811275568763	1045.472116880745	2545.04703657441	80.9950346455697	939.0572515567388	2057.539648246514	1037.352266318428	965.0516892542192	2395.468403056695	175.1966222455275	930.9142257442954	2353.949995546401	169.6770817133371	961.1746778947788	2374.250937043471	250.5614985774509	909.819587191911	2333.024847226507	250.2679575871549	944.1249493702956	2293.053825721737	644.4929032849909	853.7933452541248	2238.266570496197	611.3711013173134	889.4911743064579	2229.317435162071	734.3017854318706	841.5283571670266	2177.78633234917	703.4948598946645	876.576677919481	2217.661510603068	975.1448189073003	1137.448314849581	1507.796475898893	467.2440994431119	1057.139134032425	1512.621227876525	663.8514370096736	1071.311167639524	1514.686572337746	627.1029918750901	1110.123538853313	1554.170484680729	635.4016067850923	1070.444256181242	2179.207457864179	1057.317018260885	1160.074586327182	1447.463640628315	453.3075600796067	1004.520450460473	1443.044513667007	476.8456723856157	1113.647664764293	2056.545456113275	1033.331782614848	1069.911016976298	1634.740472217726	570.4570644088913	1113.1732415481	1637.509384740388	603.1571260828083	1068.792759671919	1716.143378883629	573.2284974116649	1118.472758625807	1717.51075813238	602.7849526255097	1073.559954007909	2010.92430116682	588.366466205271	1135.82933720827	1959.288094599497	614.220061409073	1090.612217450465	2036.427171159434	692.0746556311798	1164.422641072955	1985.552784785502	715.9328345382373	1123.972450138785	
566	3.766666666666667	2222.789300770803	996.5281991551848	915.6767244940564	2343.237256299949	24.39113409902794	982.4566175700242	2374.887566197025	46.8306898712463	941.4200863230978	2343.842331808219	74.52747606913772	984.9735615177292	2162.956507731618	1073.625117331482	874.2826879561158	2547.341482022614	103.8526042429236	1045.370629267643	2529.221335159867	72.25153429461068	938.8113331066533	2056.68645126344	1031.901608338022	966.5603796664544	2383.556174119547	168.4540888896406	932.5792655249791	2342.241525234419	163.976608364601	963.1232114678777	2363.862767386807	244.0554627024095	911.233275128006	2322.91439091243	244.7809682956749	945.7481499084621	2289.046406488975	639.1543707378245	854.1047179619519	2233.682915929093	606.4275016888973	889.2746086562545	2226.022019927361	729.4932841481702	841.587716453143	2174.226541767629	699.2066528524476	876.60318692542	2218.833597577453	969.6376045320563	1137.416091795347	1518.778626221671	484.7554047951418	1062.06454813028	1534.464153688462	681.1855804699782	1073.670048781721	1534.805368479774	644.5299056280282	1112.642167108796	1574.424684214213	650.5045988455938	1072.942362467351	2180.195959633806	1050.801841282236	1161.145623013608	1457.427333659082	473.5774619752581	1009.956606000171	1455.091798622948	498.1048578235881	1118.446757433896	2056.517558224001	1026.289996041787	1071.378824991493	1651.515547552918	581.28386345028	1115.404053437409	1655.71958916856	613.190287997863	1070.64003970991	1732.918619451355	579.3864986477661	1119.659841418605	1735.52188234429	608.2124377227984	1074.31912593001	2018.140804431848	579.4031771960263	1135.075916734016	1966.807698365353	603.9782464624979	1089.181571256746	2041.419274673679	683.6551641014556	1163.503261588661	1990.695843956565	706.5413071483069	1122.48845244388	
